# xmcd
#
# Track frame offsets:
#	150
#	13058
#	26593
#	40103
#	54978
#	69673
#	83475
#	99103
#	112850
#	126173
#	140913
#	154035
#	168245
#	181783
#	196835
#	211393
#
# Disc length: 3006 seconds
#
# Revision: 1
# Processed by: cddbd v1.5.2PL0 Copyright (c) Steve Scherf et al.
# Submitted via: audiograbber 1.83.01
#
DISCID=c70bbc10
DTITLE=Billie Holiday - The Lady Sings The Blues
DYEAR=1992
DGENRE=
TTITLE0=I Gotta Right To Sing The Blues
TTITLE1=On The Sunny Side Of The Street
TTITLE2=All Of Me
TTITLE3=Love Me Or Leave Me
TTITLE4=Embraceable You
TTITLE5=I Love My Man
TTITLE6=Yesterday
TTITLE7=The Man I Love
TTITLE8=Body And Soul
TTITLE9=Georgia On My Mind
TTITLE10=God Bless The Child
TTITLE11=My Last Affair
TTITLE12=My Old Flame
TTITLE13=Lover Come Back To Me
TTITLE14=Fine And Mellow
TTITLE15=Strange Fruit
EXTD=
EXTT0=
EXTT1=
EXTT2=
EXTT3=
EXTT4=
EXTT5=
EXTT6=
EXTT7=
EXTT8=
EXTT9=
EXTT10=
EXTT11=
EXTT12=
EXTT13=
EXTT14=
EXTT15=
PLAYORDER=
